<?xml version="1.0" encoding="utf-8"?>
<!-- Generator: Adobe Illustrator 18.0.0, SVG Export Plug-In . SVG Version: 6.00 Build 0)  -->
<!DOCTYPE svg PUBLIC "-//W3C//DTD SVG 1.1//EN" "http://www.w3.org/Graphics/SVG/1.1/DTD/svg11.dtd">
<svg version="1.1" id="Capa_1" xmlns="http://www.w3.org/2000/svg" xmlns:xlink="http://www.w3.org/1999/xlink" x="0px" y="0px"
	 viewBox="0 0 960 560" enable-background="new 0 0 960 560" xml:space="preserve">
<g>
	<g>
		<path fill="#020202" d="M480,560c-25.8,0-50.6-3.4-74.5-10.1c-23.9-6.7-46.2-16.2-66.9-28.3S299,495,282,478
			c-17-17-31.6-35.8-43.7-56.6c-12.1-20.7-21.6-43-28.3-66.9c-6.7-23.9-10.1-48.7-10.1-74.5s3.4-50.6,10.1-74.5s16.2-46.2,28.3-66.9
			C250.5,117.9,265,99,282,82s35.8-31.6,56.6-43.7s43-21.6,66.9-28.3C429.4,3.4,454.2,0,480,0c38.4,0,74.8,7.4,108.9,22.1
			c34.2,14.8,63.8,34.7,89,59.9c25.2,25.2,45.2,54.9,59.9,89S760,241.6,760,280c0,25.8-3.4,50.6-10.1,74.5
			c-6.7,23.9-16.2,46.2-28.3,66.9S695,461,678,478c-17,17-35.8,31.6-56.6,43.7c-20.7,12.1-43,21.6-66.9,28.3
			C530.6,556.6,505.8,560,480,560z M615,164.6H349.5c-2.6,0-4.8,0.8-6.7,2.5c-1.9,1.7-2.8,4-2.8,7v29.7c0,1.5,0.6,2.2,1.7,2.2
			l139.4,79.5l1.1,0.6c0.8,0,1.3-0.2,1.7-0.6l135-79.5c0.8-0.4,1.3-0.6,1.7-0.6s0.9-0.2,1.7-0.6c1.5,0,2.2-0.8,2.2-2.2v-28.6
			c0-3-0.9-5.3-2.8-7C619.8,165.5,617.6,164.6,615,164.6z M424.6,283.9c0.4-0.4,0.6-0.9,0.6-1.7c0-1.1-0.4-1.7-1.1-1.7l-80.1-45.9
			c-1.1-0.4-2-0.4-2.8,0c-0.8,0-1.1,0.6-1.1,1.7v120.4c0,1.1,0.6,1.9,1.7,2.2h1.1c0.8,0,1.1-0.2,1.1-0.6L424.6,283.9z M522,292.9
			c-0.4-1.1-1.3-1.3-2.8-0.6l-30.8,17.9c-3.7,2.2-7.6,2.2-11.8,0l-26.9-15.1c-1.1-0.8-2-0.8-2.8,0l-102.5,95.2
			c-0.4,0.4-0.6,1.1-0.6,2.2c0,0.4,0.4,0.9,1.1,1.7c2.2,0.8,3.7,1.1,4.5,1.1h262.6c0.8,0,1.5-0.4,2.2-1.1c0-1.5-0.2-2.4-0.6-2.8
			L522,292.9z M622.8,232.4h-2.2l-76.2,45.4c-0.8,0-1.1,0.6-1.1,1.7c-0.4,0.4-0.2,0.9,0.6,1.7l76.2,82.3c0.8,0.8,1.3,1.1,1.7,1.1
			h1.1c1.1-1.1,1.7-1.9,1.7-2.2V234.6C624.5,233.9,623.9,233.2,622.8,232.4z"/>
	</g>
</g>
</svg>
