<?xml version="1.0" encoding="utf-8"?>
<!-- Generator: Adobe Illustrator 18.0.0, SVG Export Plug-In . SVG Version: 6.00 Build 0)  -->
<!DOCTYPE svg PUBLIC "-//W3C//DTD SVG 1.1//EN" "http://www.w3.org/Graphics/SVG/1.1/DTD/svg11.dtd">
<svg version="1.1" id="Capa_1" xmlns="http://www.w3.org/2000/svg" xmlns:xlink="http://www.w3.org/1999/xlink" x="0px" y="0px"
	 viewBox="0 0 960 560" enable-background="new 0 0 960 560" xml:space="preserve">
<g>
	<g>
		<path d="M471.2,226.6c0-28.9-17.5-73.5-49.9-73.5c-10.5,0-21.9,5.2-28,13.1c-7,8.8-8.8,19.2-8.8,29.8c0,26.2,15.7,70.9,49.9,70.9
			c9.6,0,21-4.4,27.1-11.4C470.4,245.9,471.2,233.6,471.2,226.6z"/>
		<path d="M760,280C760,125.1,634.9,0,480,0S200,125.1,200,280s125.1,280,280,280S760,434.9,760,280z M566.6,225.8h21.9v42.9h42.9
			v21.9h-42.9v42.9h-21.9v-42.9h-42.9v-21.9h42.9V225.8z M329.5,386.8c0-14,7-35,30.6-49c24.5-14.9,57.8-17.5,76.1-18.4
			c-5.2-7-12.2-14.9-12.2-27.1c0-7,1.8-10.5,4.4-15.8c-4.4,0-8.8,0.9-13.1,0.9c-42,0-66.5-31.5-66.5-62.1c0-18.4,8.8-38.5,25.4-53.4
			C396.9,143.5,424,140,445,140h82.2l-25.4,14h-24.5l0,0c8.8,7.9,28,23.6,28,53.4s-16.6,43.8-33.2,56.9
			c-5.2,5.2-11.4,10.5-11.4,19.2s6.1,13.1,10.5,17.5l14,11.4c17.5,14.9,33.2,28,33.2,56c0,37.6-35.9,75.2-105,75.2
			C356.6,443.6,329.5,415.6,329.5,386.8z"/>
		<path d="M449.4,330.8c-3.5,0-5.2,0-8.8,0s-25.4,0.9-42,6.1c-8.8,3.5-34.1,13.1-34.1,41.1s27.1,48.1,70,48.1
			c38.5,0,58.6-18.4,58.6-42.9C493.1,363.1,480,352.6,449.4,330.8z"/>
	</g>
</g>
</svg>
