<?xml version="1.0" encoding="utf-8"?>
<!-- Generator: Adobe Illustrator 18.0.0, SVG Export Plug-In . SVG Version: 6.00 Build 0)  -->
<!DOCTYPE svg PUBLIC "-//W3C//DTD SVG 1.1//EN" "http://www.w3.org/Graphics/SVG/1.1/DTD/svg11.dtd">
<svg version="1.1" id="Capa_1" xmlns="http://www.w3.org/2000/svg" xmlns:xlink="http://www.w3.org/1999/xlink" x="0px" y="0px"
	 viewBox="0 0 960 560" enable-background="new 0 0 960 560" xml:space="preserve">
<g>
	<path d="M480,0C325.1,0,200,125.1,200,280c0,118.1,73.5,219.6,177.6,260.8c-0.9-9.6,0-59.5,34.1-207.4c4.4-49-1.8-66.5-1.8-87.5
		c0-46.4,24.5-56,38.5-56c20.1,0,48.1,7.9,48.1,40.3c0,36.8-30.6,47.2-30.6,47.2s-1.8,9.6-4.4,35.9c-2.6,26.2,7.9,55.1,51.6,55.1
		c69.1,0,79.6-96.2,79.6-122.5c0-36.8-27.1-110.2-109.4-110.2c-111.1,0-129.5,98.9-129.5,126c0,11.4,3.5,31.5,5.2,40.2
		c21,3.5,18.4,32.4,9.6,40.2c-9.6,8.8-61.2,19.3-61.2-92.7c0-106.8,95.4-161.9,178.5-161.9c79.6,0,166.3,55.1,166.3,161
		c0,94.5-68.2,168.9-139.1,168.9c-42.9,0-65.6-35-65.6-35c0,33.2-60.4,146.1-68.2,161C410,553,444.1,560,480,560
		c154.9,0,280-125.1,280-280S634.9,0,480,0z"/>
</g>
</svg>
