<?xml version="1.0" encoding="utf-8"?>
<!-- Generator: Adobe Illustrator 18.0.0, SVG Export Plug-In . SVG Version: 6.00 Build 0)  -->
<!DOCTYPE svg PUBLIC "-//W3C//DTD SVG 1.1//EN" "http://www.w3.org/Graphics/SVG/1.1/DTD/svg11.dtd">
<svg version="1.1" id="Capa_1" xmlns="http://www.w3.org/2000/svg" xmlns:xlink="http://www.w3.org/1999/xlink" x="0px" y="0px"
	 viewBox="0 0 960 560" enable-background="new 0 0 960 560" xml:space="preserve">
<g>
	<g>
		<path d="M480,0C326,0,200,126,200,280s126,280,280,280s280-126,280-280S634,0,480,0z M605.1,216.1c0,2.6,0,5.3,0,8.8
			c0,84.9-64.8,182.9-183.8,182.9c-36.8,0-70-10.5-98.9-28.9c5.2,0.9,10.5,0.9,15.8,0.9c30.6,0,57.8-10.5,79.6-28
			c-28-0.9-51.6-19.2-60.4-44.6c3.5,0.9,7.9,0.9,12.2,0.9c6.1,0,11.4-0.9,16.6-2.6c-29.8-6.1-51.6-32.4-51.6-63v-0.9
			c8.8,5.2,18.4,7.9,28.9,7.9c-17.5-11.4-28.9-31.5-28.9-53.4c0-12.2,3.5-22.8,8.7-32.4c31.5,39.4,79.6,64.8,133,67.4
			c-0.9-4.4-1.8-9.6-1.8-14.9c0-35.9,28.9-64.8,64.8-64.8c18.4,0,35,7.9,47.2,20.1c14.9-2.6,28.9-7.9,41.1-15.8
			c-5.2,14.9-14.9,28-28,35.9c13.1-1.8,25.4-5.2,36.8-10.5C628.8,195.1,617.4,206.5,605.1,216.1z"/>
	</g>
</g>
</svg>
